<svg width="218" height="198" viewBox="0 0 218 198" fill="none" xmlns="http://www.w3.org/2000/svg">
<path d="M177.845 159.5L107.329 196.743L36.9199 159.5V103.26H177.845V159.5Z" fill="white"/>
<path d="M107.329 197.314C107.236 197.314 107.144 197.291 107.062 197.247L36.6549 160.004C36.5634 159.956 36.4867 159.883 36.4331 159.795C36.3795 159.706 36.351 159.605 36.3506 159.501V103.26C36.3506 103.108 36.4108 102.963 36.5179 102.856C36.625 102.749 36.7703 102.688 36.9218 102.688H177.845C177.996 102.688 178.142 102.749 178.249 102.856C178.356 102.963 178.416 103.108 178.416 103.26V159.5C178.416 159.603 178.387 159.705 178.334 159.793C178.28 159.882 178.203 159.954 178.112 160.002L107.596 197.246C107.514 197.29 107.422 197.313 107.329 197.314ZM37.4912 159.156L107.329 196.097L177.274 159.155V103.831H37.4912V159.156Z" fill="#262626"/>
<path d="M177.846 91.1912L107.33 53.9483L139.017 38.6748L209.533 75.9182L177.846 91.1912Z" fill="white"/>
<path d="M177.846 91.7627C177.753 91.7627 177.661 91.7401 177.579 91.6968L107.063 54.4534C106.97 54.404 106.892 54.3296 106.838 54.2386C106.784 54.1475 106.757 54.0434 106.759 53.9377C106.761 53.832 106.792 53.7289 106.849 53.6399C106.906 53.5509 106.987 53.4795 107.082 53.4335L138.769 38.16C138.849 38.1209 138.938 38.1015 139.027 38.1031C139.117 38.1048 139.205 38.1276 139.284 38.1696L209.8 75.413C209.893 75.4624 209.971 75.5367 210.025 75.6277C210.078 75.7188 210.106 75.8229 210.104 75.9285C210.102 76.0342 210.071 76.1372 210.014 76.2262C209.957 76.3152 209.876 76.3866 209.781 76.4325L178.094 91.706C178.016 91.7434 177.932 91.7627 177.846 91.7627ZM108.597 53.9709L177.857 90.5508L208.265 75.8942L139.005 39.3152L108.597 53.9709Z" fill="#262626"/>
<path d="M36.9205 91.1912L107.436 53.9483L75.7491 38.6748L5.2334 75.9182L36.9205 91.1912Z" fill="white"/>
<path d="M36.9205 91.7627C36.8346 91.7627 36.7497 91.7433 36.6723 91.706L4.9871 76.4325C4.89192 76.3866 4.81134 76.3152 4.75433 76.2262C4.69731 76.1372 4.6661 76.0342 4.66416 75.9285C4.66222 75.8229 4.68962 75.7188 4.74333 75.6277C4.79704 75.5367 4.87494 75.4624 4.96837 75.413L75.4841 38.1696C75.5631 38.1276 75.651 38.1048 75.7404 38.1031C75.8299 38.1015 75.9186 38.1209 75.9991 38.16L107.686 53.4335C107.781 53.4795 107.862 53.5509 107.919 53.6399C107.976 53.7289 108.007 53.832 108.009 53.9377C108.011 54.0434 107.984 54.1475 107.93 54.2386C107.876 54.3296 107.798 54.404 107.705 54.4534L37.1892 91.6968C37.1063 91.7404 37.0141 91.763 36.9205 91.7627ZM6.5006 75.8951L36.9086 90.5517L106.169 53.9718L75.761 39.3152L6.5006 75.8951Z" fill="#262626"/>
<path d="M36.9199 91.1914L107.436 128.435L71.1788 148.278L0.663086 111.035L36.9199 91.1914Z" fill="white"/>
<path d="M71.179 148.849C71.0859 148.849 70.9943 148.826 70.9121 148.783L0.396367 111.539C0.305325 111.491 0.229039 111.419 0.175595 111.331C0.122151 111.243 0.093538 111.142 0.0927885 111.039C0.0920391 110.936 0.119181 110.834 0.171338 110.746C0.223495 110.657 0.298724 110.584 0.389054 110.534L36.6459 90.6908C36.7287 90.6454 36.8215 90.6213 36.9159 90.6206C37.0104 90.62 37.1035 90.6429 37.1869 90.6872L107.703 127.931C107.794 127.979 107.87 128.051 107.923 128.139C107.977 128.227 108.005 128.328 108.006 128.431C108.007 128.534 107.98 128.635 107.928 128.724C107.876 128.813 107.8 128.886 107.71 128.936L71.4532 148.779C71.3691 148.825 71.2748 148.849 71.179 148.849ZM1.86965 111.026L71.1739 147.629L106.23 128.444L36.9251 91.8401L1.86965 111.026Z" fill="#262626"/>
<path d="M177.846 91.1914L107.33 128.435L143.587 148.278L214.103 111.035L177.846 91.1914Z" fill="white"/>
<path d="M143.588 148.849C143.492 148.849 143.398 148.825 143.314 148.779L107.057 128.936C106.967 128.886 106.891 128.813 106.839 128.724C106.787 128.635 106.76 128.534 106.761 128.431C106.762 128.328 106.79 128.227 106.844 128.139C106.897 128.051 106.973 127.979 107.064 127.931L177.58 90.6872C177.663 90.6429 177.757 90.62 177.851 90.6206C177.946 90.6213 178.038 90.6454 178.121 90.6908L214.378 110.534C214.468 110.584 214.543 110.657 214.596 110.746C214.648 110.834 214.675 110.936 214.674 111.039C214.673 111.142 214.645 111.243 214.591 111.331C214.538 111.419 214.462 111.491 214.371 111.539L143.855 148.783C143.773 148.826 143.681 148.849 143.588 148.849ZM108.538 128.444L143.594 147.629L212.898 111.026L177.842 91.8401L108.538 128.444Z" fill="#262626"/>
<path d="M107.436 53.9492L36.9199 91.1922L107.329 128.436L177.845 91.1922L107.436 53.9492Z" fill="#262626"/>
<path d="M107.9 128.435H106.758V196.743H107.9V128.435Z" fill="#262626"/>
<path d="M67.8212 87.8106C67.7267 87.8107 67.6345 87.7811 67.5576 87.7261C67.4587 87.656 67.3917 87.5496 67.3713 87.4301C67.3509 87.3106 67.3788 87.188 67.4488 87.0891C67.5333 86.9698 75.7922 75.03 66.5723 64.1448C64.9405 62.2082 62.9049 60.6519 60.6081 59.585C58.3114 58.518 55.8091 57.9663 53.2767 57.9684H53.1524C54.0279 61.01 53.8716 63.7144 52.6319 65.789C52.1036 66.7265 51.3241 67.4979 50.381 68.0162C49.438 68.5346 48.369 68.7793 47.2944 68.7228C46.4049 68.65 45.5559 68.3193 44.8515 67.7712C44.147 67.2232 43.6177 66.4816 43.3283 65.6373C42.3143 62.9923 43.374 60.4278 46.167 58.7749C47.9364 57.7992 49.9025 57.2337 51.9199 57.1202C51.2636 55.3802 50.4102 53.7211 49.3764 52.1753C46.0473 47.091 39.9801 43.5714 32.7297 42.519C26.5852 41.6274 20.6967 42.6775 17.7259 45.1936C17.6333 45.2719 17.5135 45.3103 17.3927 45.3002C17.2719 45.2901 17.1601 45.2325 17.0818 45.1399C17.0035 45.0474 16.9651 44.9276 16.9752 44.8068C16.9853 44.686 17.0429 44.5741 17.1355 44.4958C20.2968 41.8184 26.4692 40.6865 32.8609 41.6169C40.3703 42.7072 46.6684 46.3736 50.1414 51.6767C51.2673 53.3586 52.1832 55.172 52.8686 57.0764C55.6005 57.0107 58.3123 57.5588 60.8042 58.6803C63.2962 59.8017 65.5048 61.468 67.2674 63.5562C76.952 74.9893 68.2805 87.4949 68.1918 87.6201C68.1496 87.6789 68.094 87.7269 68.0295 87.7601C67.9651 87.7932 67.8937 87.8105 67.8212 87.8106ZM52.2165 58.0017C50.2605 58.0851 48.3503 58.619 46.6345 59.5618C44.2235 60.9885 43.3306 63.0842 44.1838 65.3106C44.4149 65.9928 44.8399 66.5928 45.4068 67.0372C45.9736 67.4816 46.6577 67.7512 47.3753 67.813C48.2789 67.8534 49.1759 67.6418 49.966 67.2016C50.7562 66.7615 51.4083 66.1102 51.8495 65.3206C52.9874 63.415 53.0916 60.882 52.2151 58.0017H52.2165Z" fill="#292A2E"/>
<path d="M9.83881 52.5612C9.06225 52.7945 8.2253 52.7155 7.50616 52.3409C6.78702 51.9663 6.24251 51.3258 5.98857 50.5558C5.73462 49.7857 5.79131 48.9469 6.14656 48.218C6.5018 47.4892 7.12754 46.9277 7.89054 46.6533C8.65354 46.3789 9.49352 46.4132 10.2316 46.7489C10.9697 47.0845 11.5477 47.695 11.8424 48.4504C12.137 49.2058 12.1252 50.0464 11.8094 50.7932C11.4935 51.5401 10.8987 52.1341 10.1514 52.4488C10.0493 52.492 9.94498 52.5295 9.83881 52.5612ZM8.31938 47.4833C8.24535 47.5056 8.17259 47.5318 8.1014 47.5619C7.57561 47.7836 7.15714 48.2018 6.93513 48.7275C6.71312 49.2532 6.70512 49.8447 6.91282 50.3762C7.12051 50.9077 7.52751 51.3371 8.04711 51.5729C8.56671 51.8088 9.15786 51.8324 9.69465 51.6389C10.2314 51.4453 10.6714 51.0498 10.921 50.5366C11.1705 50.0235 11.2098 49.4332 11.0305 48.8914C10.8512 48.3497 10.4675 47.8994 9.96111 47.6364C9.45472 47.3734 8.86566 47.3185 8.31938 47.4833Z" fill="#292A2E"/>
<path d="M9.83343 45.401C9.09884 45.6203 8.3091 45.5604 7.61604 45.2326C6.92297 44.9049 6.37552 44.3326 6.07893 43.6256C5.84113 43.0589 5.77673 42.4343 5.8939 41.831C6.01106 41.2276 6.30451 40.6726 6.73714 40.236C7.16978 39.7995 7.72215 39.501 8.32442 39.3784C8.92668 39.2558 9.55178 39.3145 10.1207 39.5472C10.6895 39.7798 11.1767 40.176 11.5204 40.6855C11.8641 41.195 12.049 41.795 12.0517 42.4096C12.0545 43.0242 11.8748 43.6259 11.5356 44.1384C11.1964 44.6509 10.7128 45.0513 10.146 45.289C10.0438 45.3318 9.9395 45.3691 9.83343 45.401ZM8.31582 40.3226C8.24091 40.3451 8.16724 40.3715 8.0951 40.4017C7.55901 40.6269 7.13426 41.0557 6.91421 41.5939C6.69416 42.1321 6.69681 42.7357 6.92159 43.2719C7.08552 43.6628 7.35921 43.9979 7.70955 44.2365C8.05989 44.4752 8.47186 44.6072 8.89565 44.6166C9.31944 44.626 9.73688 44.5124 10.0975 44.2896C10.4581 44.0668 10.7464 43.7442 10.9275 43.361C11.1087 42.9777 11.1749 42.5502 11.1182 42.1302C11.0614 41.7101 10.8842 41.3154 10.6079 40.9939C10.3316 40.6725 9.9681 40.4379 9.56132 40.3187C9.15454 40.1995 8.72193 40.2012 8.31582 40.3226Z" fill="#292A2E"/>
<path d="M8.94623 48.6325C11.1904 48.6325 13.0096 47.4174 13.0096 45.9186C13.0096 44.4197 11.1904 43.2046 8.94623 43.2046C6.70207 43.2046 4.88281 44.4197 4.88281 45.9186C4.88281 47.4174 6.70207 48.6325 8.94623 48.6325Z" fill="white"/>
<path d="M10.7453 48.8318C10.1628 49.0039 9.5583 49.0908 8.9508 49.0895C6.41551 49.0895 4.42676 47.7003 4.42676 45.9222C4.42676 44.1441 6.40957 42.7499 8.94395 42.7471C10.0489 42.7259 11.136 43.0277 12.0719 43.6154C12.4923 43.8344 12.8446 44.1644 13.0906 44.5695C13.3366 44.9746 13.4669 45.4394 13.4673 45.9134C13.4678 46.3874 13.3383 46.8524 13.093 47.258C12.8477 47.6636 12.496 47.9942 12.0761 48.2139C11.6655 48.4846 11.217 48.6928 10.7453 48.8318ZM7.4268 43.8786C6.20576 44.2442 5.34025 45.0334 5.34071 45.9199C5.34071 47.1432 6.99358 48.1755 8.9508 48.1737C9.87535 48.1932 10.7855 47.9429 11.5702 47.4535C11.8645 47.318 12.1137 47.1009 12.2883 46.828C12.4629 46.555 12.5555 46.2378 12.5552 45.9138C12.555 45.5898 12.4617 45.2727 12.2867 45.0001C12.1116 44.7275 11.862 44.5108 11.5674 44.3758C10.7822 43.8874 9.8716 43.6387 8.94715 43.6602C8.43245 43.6588 7.9203 43.7324 7.4268 43.8786Z" fill="#292A2E"/>
<path d="M9.94361 48.5493L9.84764 43.2713L8.53521 43.2183L8.44336 48.611L9.94361 48.5493Z" fill="#292A2E"/>
<path d="M3.55524 47.067C3.78693 47.067 3.97475 46.8792 3.97475 46.6475C3.97475 46.4158 3.78693 46.228 3.55524 46.228C3.32356 46.228 3.13574 46.4158 3.13574 46.6475C3.13574 46.8792 3.32356 47.067 3.55524 47.067Z" fill="#292A2E"/>
<path d="M3.88239 44.8219C4.11408 44.8219 4.3019 44.6341 4.3019 44.4024C4.3019 44.1707 4.11408 43.9829 3.88239 43.9829C3.65071 43.9829 3.46289 44.1707 3.46289 44.4024C3.46289 44.6341 3.65071 44.8219 3.88239 44.8219Z" fill="#292A2E"/>
<path d="M139.624 61.4573C139.526 61.4573 139.431 61.4259 139.352 61.3678C139.274 61.3096 139.216 61.2278 139.187 61.1342C137.671 55.474 137.267 49.5737 137.996 43.7596C139.177 35.2599 143.865 24.1047 159.488 19.2201C161.686 18.5133 163.941 17.9964 166.227 17.675C166.963 13.0774 169.764 8.09001 176.026 4.64899C190.906 -3.5272 200.958 3.80861 201.057 3.88356C201.154 3.95628 201.218 4.06453 201.235 4.18451C201.253 4.30449 201.221 4.42636 201.149 4.52332C201.076 4.62028 200.968 4.68438 200.848 4.70152C200.728 4.71866 200.606 4.68744 200.509 4.61472C200.414 4.54343 190.808 -2.43046 176.467 5.45052C170.615 8.66625 167.936 13.2817 167.174 17.5663C174.065 16.8877 177.365 19.1863 178.846 20.9223C179.762 21.9663 180.351 23.2568 180.539 24.6331C180.727 26.0094 180.506 27.4106 179.903 28.6621C179.427 29.6736 178.655 30.517 177.69 31.0806C176.724 31.6443 175.61 31.9019 174.495 31.8193C170.647 31.5936 167.462 28.3564 166.383 23.5718C166.027 21.9522 165.932 20.2861 166.102 18.6365C163.952 18.9455 161.831 19.4332 159.761 20.0947C147.585 23.9018 140.568 31.9075 138.901 43.888C138.187 49.5702 138.581 55.3369 140.061 60.8692C140.082 60.9375 140.086 61.0098 140.074 61.0802C140.062 61.1507 140.034 61.2173 139.991 61.2748C139.949 61.3322 139.893 61.3789 139.83 61.4111C139.766 61.4433 139.695 61.4601 139.624 61.4601V61.4573ZM167.034 18.5223C166.844 20.1404 166.925 21.779 167.275 23.3703C168.262 27.7472 171.117 30.7052 174.549 30.9067C175.484 30.9738 176.418 30.7565 177.227 30.2835C178.037 29.8106 178.685 29.1039 179.085 28.2563C179.608 27.1649 179.798 25.944 179.631 24.7456C179.465 23.5471 178.95 22.4241 178.15 21.5164C176.013 19.009 172.113 17.9963 167.034 18.5223Z" fill="#292A2E"/>
<path d="M211.704 8.50251C211.089 8.50122 210.486 8.32592 209.966 7.99683C209.446 7.66773 209.029 7.19827 208.765 6.64263C208.5 6.08698 208.398 5.4678 208.47 4.85654C208.542 4.24529 208.785 3.66688 209.172 3.18806C209.559 2.70925 210.073 2.34956 210.655 2.1505C211.238 1.95144 211.865 1.92113 212.464 2.06306C213.063 2.20499 213.609 2.51338 214.04 2.95264C214.471 3.3919 214.769 3.94412 214.9 4.54557C215.003 5.02234 214.997 5.51599 214.884 5.99036C214.771 6.46473 214.553 6.90781 214.247 7.28717C213.941 7.66653 213.553 7.97256 213.113 8.18284C212.673 8.39313 212.192 8.50235 211.704 8.50251ZM211.711 2.88904C211.225 2.88903 210.751 3.03977 210.354 3.32049C209.957 3.60121 209.657 3.99809 209.496 4.45642C209.334 4.91475 209.318 5.41198 209.451 5.87957C209.584 6.34716 209.858 6.7621 210.236 7.06718C210.615 7.37227 211.078 7.5525 211.563 7.58302C212.049 7.61353 212.531 7.49285 212.945 7.23759C213.358 6.98232 213.683 6.60506 213.873 6.15778C214.063 5.7105 214.11 5.21524 214.007 4.74024C213.895 4.21471 213.606 3.74365 213.188 3.40644C212.77 3.06924 212.248 2.8865 211.711 2.88904Z" fill="#292A2E"/>
<path d="M210.328 15.9608C209.491 15.9607 208.685 15.6395 208.077 15.0634C207.469 14.4872 207.105 13.7 207.06 12.8636C207.015 12.0273 207.293 11.2055 207.835 10.5675C208.378 9.92949 209.145 9.5238 209.977 9.43394C210.81 9.34408 211.646 9.57689 212.312 10.0844C212.978 10.592 213.424 11.3356 213.559 12.1623C213.693 12.989 213.506 13.8358 213.035 14.5284C212.564 15.221 211.845 15.7066 211.027 15.8854C210.797 15.9355 210.563 15.9607 210.328 15.9608ZM210.34 10.3468C210.171 10.3469 210.002 10.3651 209.837 10.4012C209.253 10.5294 208.741 10.8765 208.405 11.371C208.07 11.8655 207.936 12.4698 208.033 13.0596C208.129 13.6494 208.448 14.1799 208.923 14.5418C209.399 14.9038 209.995 15.0697 210.589 15.0054C211.184 14.9411 211.731 14.6515 212.118 14.1963C212.505 13.741 212.703 13.1546 212.671 12.5578C212.639 11.9611 212.379 11.3992 211.946 10.9879C211.512 10.5767 210.937 10.3472 210.34 10.3468Z" fill="#292A2E"/>
<path d="M215.235 9.83748C215.523 8.27661 213.862 6.66168 211.525 6.23045C209.188 5.79922 207.061 6.71498 206.772 8.27585C206.484 9.83672 208.145 11.4516 210.482 11.8829C212.819 12.3141 214.947 11.3983 215.235 9.83748Z" fill="white"/>
<path d="M211.632 12.447C211.218 12.4463 210.805 12.4081 210.398 12.3328C209.249 12.1421 208.18 11.6202 207.323 10.8312C206.948 10.5111 206.66 10.1016 206.485 9.6406C206.31 9.17958 206.254 8.68187 206.322 8.1935C206.433 7.71295 206.663 7.26803 206.991 6.89983C207.319 6.53163 207.734 6.25203 208.199 6.08684C209.286 5.67629 210.465 5.57074 211.607 5.7816C212.75 5.99246 213.813 6.51172 214.682 7.2832C215.057 7.60326 215.346 8.01273 215.521 8.47375C215.696 8.93478 215.752 9.43249 215.683 9.92086C215.573 10.4014 215.343 10.8463 215.015 11.2145C214.687 11.5827 214.271 11.8623 213.807 12.0275C213.118 12.3127 212.378 12.4554 211.632 12.447ZM210.37 6.58038C209.75 6.57248 209.134 6.69015 208.56 6.92631C208.235 7.035 207.943 7.22297 207.709 7.4732C207.475 7.72342 207.307 8.02801 207.221 8.35938C207.184 8.69976 207.232 9.04412 207.361 9.3613C207.49 9.67847 207.696 9.95843 207.96 10.1759C208.7 10.821 209.599 11.2554 210.564 11.4335C211.528 11.6116 212.523 11.5268 213.444 11.1881C213.769 11.0794 214.061 10.8914 214.295 10.6412C214.529 10.3909 214.697 10.0863 214.783 9.75498C214.821 9.41458 214.773 9.07014 214.644 8.75292C214.515 8.4357 214.308 8.15576 214.044 7.9385C213.316 7.27487 212.411 6.83769 211.439 6.68045C211.087 6.61491 210.73 6.58141 210.372 6.58038H210.37Z" fill="#292A2E"/>
<path d="M210.476 6.12549L209.557 11.6393L210.912 11.9483L212.049 6.35078L210.476 6.12549Z" fill="#292A2E"/>
<path d="M215.985 12.0573C216.231 12.0573 216.429 11.8584 216.429 11.6131C216.429 11.3678 216.231 11.1689 215.985 11.1689C215.74 11.1689 215.541 11.3678 215.541 11.6131C215.541 11.8584 215.74 12.0573 215.985 12.0573Z" fill="#292A2E"/>
<path d="M216.76 9.78387C217.005 9.78387 217.204 9.585 217.204 9.33969C217.204 9.09437 217.005 8.89551 216.76 8.89551C216.514 8.89551 216.315 9.09437 216.315 9.33969C216.315 9.585 216.514 9.78387 216.76 9.78387Z" fill="#292A2E"/>
</svg>
