<svg width="20" height="16" viewBox="0 0 20 16" fill="none" xmlns="http://www.w3.org/2000/svg"><path d="M2 4C3.10457 4 4 3.10457 4 2C4 0.89543 3.10457 0 2 0C0.89543 0 0 0.89543 0 2C0 3.10457 0.89543 4 2 4Z" fill="currentColor"></path><path d="M2 10C3.10457 10 4 9.10457 4 8C4 6.89543 3.10457 6 2 6C0.89543 6 0 6.89543 0 8C0 9.10457 0.89543 10 2 10Z" fill="currentColor"></path><path d="M2 16C3.10457 16 4 15.1046 4 14C4 12.8954 3.10457 12 2 12C0.89543 12 0 12.8954 0 14C0 15.1046 0.89543 16 2 16Z" fill="currentColor"></path><path d="M20 2C20 2.552 19.553 3 19 3H7C6.448 3 6 2.552 6 2C6 1.448 6.448 1 7 1H19C19.553 1 20 1.447 20 2Z" fill="currentColor"></path><path d="M20 8C20 8.552 19.553 9 19 9H7C6.448 9 6 8.552 6 8C6 7.448 6.448 7 7 7H19C19.553 7 20 7.447 20 8Z" fill="currentColor"></path><path d="M20 14C20 14.552 19.553 15 19 15H7C6.448 15 6 14.552 6 14C6 13.447 6.448 13 7 13H19C19.553 13 20 13.447 20 14Z" fill="currentColor"></path></svg>