<svg width="162" height="47" viewBox="0 0 162 47" fill="none" xmlns="http://www.w3.org/2000/svg">
<path fill-rule="evenodd" clip-rule="evenodd" d="M0.000640869 0L38.7183 23.5002L0.00137329 47H162V0H0.000640869Z" fill="#0D0D0D"/>
<path d="M56.306 29.14C53.408 29.14 51.7 27.166 51.7 23.82C51.7 20.474 53.408 18.5 56.306 18.5C59.19 18.5 60.898 20.474 60.898 23.82C60.898 27.166 59.19 29.14 56.306 29.14ZM56.306 27.936C58.238 27.936 59.386 26.41 59.386 23.82C59.386 21.23 58.238 19.704 56.306 19.704C54.346 19.704 53.198 21.23 53.198 23.82C53.198 26.41 54.346 27.936 56.306 27.936ZM69.1417 25.486V18.64H70.5277V25.402C70.5277 27.74 69.0857 29.14 66.6357 29.14C64.1997 29.14 62.7577 27.74 62.7577 25.402V18.64H64.2137V25.486C64.2137 27.026 65.1237 27.936 66.6777 27.936C68.2177 27.936 69.1417 27.026 69.1417 25.486ZM79.6795 18.64V19.802H76.5435V29H75.0735V19.802H71.9375V18.64H79.6795ZM88.0384 29.14C85.1404 29.14 83.4324 27.166 83.4324 23.82C83.4324 20.474 85.1404 18.5 88.0384 18.5C90.9224 18.5 92.6304 20.474 92.6304 23.82C92.6304 27.166 90.9224 29.14 88.0384 29.14ZM88.0384 27.936C89.9704 27.936 91.1184 26.41 91.1184 23.82C91.1184 21.23 89.9704 19.704 88.0384 19.704C86.0784 19.704 84.9304 21.23 84.9304 23.82C84.9304 26.41 86.0784 27.936 88.0384 27.936ZM101 19.802H96.0581V23.19H100.272V24.352H96.0581V29H94.5881V18.64H101V19.802ZM108.873 29.14C106.465 29.14 104.939 27.768 104.771 25.416H106.227C106.339 26.998 107.333 27.936 108.901 27.936C110.525 27.936 111.477 27.264 111.477 26.102C111.477 24.674 110.105 24.464 108.649 24.24C106.955 23.974 105.065 23.68 105.065 21.496C105.065 19.564 106.479 18.5 108.873 18.5C111.113 18.5 112.527 19.83 112.681 22.056H111.239C111.155 20.572 110.245 19.704 108.817 19.704C107.389 19.704 106.549 20.32 106.549 21.398C106.549 22.616 107.809 22.812 109.195 23.022C110.959 23.302 112.975 23.61 112.975 25.976C112.975 27.964 111.449 29.14 108.873 29.14ZM121.324 18.64V19.802H118.188V29H116.718V19.802H113.582V18.64H121.324ZM126.47 29.14C123.572 29.14 121.864 27.166 121.864 23.82C121.864 20.474 123.572 18.5 126.47 18.5C129.354 18.5 131.062 20.474 131.062 23.82C131.062 27.166 129.354 29.14 126.47 29.14ZM126.47 27.936C128.402 27.936 129.55 26.41 129.55 23.82C129.55 21.23 128.402 19.704 126.47 19.704C124.51 19.704 123.362 21.23 123.362 23.82C123.362 26.41 124.51 27.936 126.47 27.936ZM141.308 25.15C140.958 27.642 139.362 29.14 137.024 29.14C134.154 29.14 132.46 27.166 132.46 23.82C132.46 20.474 134.154 18.5 137.024 18.5C139.376 18.5 140.958 19.97 141.308 22.42H139.908C139.586 20.712 138.522 19.704 137.024 19.704C135.106 19.704 133.958 21.23 133.958 23.82C133.958 26.41 135.106 27.936 137.024 27.936C138.536 27.936 139.586 26.9 139.908 25.15H141.308ZM146.232 23.596L151.762 29H149.858L144.552 23.666H144.524V29H143.11V18.64H144.524V23.54H144.552L149.452 18.64H151.23L146.232 23.596Z" fill="#FFFCF5"/>
</svg>
